<?xml version="1.0" encoding="UTF-8"?>
<svg id="Layer_1" data-name="Layer 1" xmlns="http://www.w3.org/2000/svg" viewBox="0 0 1080 1080">
  <path fill="green" d="m218.2,1081c-.05-4.7,2.17-7.24,7.17-7.17,5.04.06,7.44-2.04,7.64-7.01.16-3.91,2.04-6.62,5.97-7.65,3.41-.89,3.96-3.15,2.96-6.16-1.48-4.5-.54-8.36,2.52-12.06,1.73-2.1,2.46-4.99,3.93-7.35,1.23-1.98,2.89-3.69,4.34-5.54,3.53-4.48-1.26-5.74-3.46-9.37-.26,2.36-.39,3.51-.58,5.24-.86-.92-1.82-1.46-2.01-2.21-1.62-6.28-5.21-11.27-9.78-15.71-.94-.91-1.84-2.07-2.22-3.28-.42-1.31-.21-2.81-.28-4.23,1.39.04,2.82-.11,4.15.19,1.27.29,2.51.93,3.63,1.63,2.97,1.87,4.53.28,5.12-2.33,1.46-6.44,2.83-12.91,3.78-19.44.27-1.86-1.05-3.95-1.64-5.93-.53-.25-1.05-.51-1.58-.76l-1.49,4.35c-.43-.25-.86-.49-1.29-.74-.74-7.91-1.2-16.01-11.71-19.31-.42-1.96-1.13-5.25-1.83-8.54-.54-.02-1.08-.04-1.62-.06-1.05,2.13-2.1,4.26-3.85,7.79-.8-2.66-1.98-4.5-1.7-6.08.66-3.72,1.69-7.46,3.17-10.94,1.86-4.37,1.97-8-2.19-11.04-.77-.57-1.42-1.38-1.95-2.2-3.32-5.1-5.4-4.92-8.69.44-2.91,4.74-6.05,9.33-9.26,13.87-.69.97-2.12,1.41-3.51,2.28-.67-1.66-1.18-2.92-2.21-5.46-1.19,3.87-2,6.48-2.89,9.37-4.14-1.74-3.75-4.75-2.95-8.2,1.02-4.39,1.65-8.88,2.45-13.32-.57-.21-1.14-.41-1.72-.62-1.08,1.38-2.16,2.76-3.41,4.35-1.18-7.07-2.3-13.8-3.42-20.53-.42.04-.83.08-1.25.13-.08.83-.16,1.65-.34,3.54-2.11-2.22-3.8-3.99-5.85-6.15-.25,4.09-.46,7.62-.69,11.48-2.45-.48-4.12-.8-6.44-1.26.15,2.99.27,5.4.39,7.81-2.87-9.81-11.32-17.8-9.43-29.03.26-1.53,1.37-4.02,2.33-4.15,9.72-1.24,14.61-8.87,20.55-15.07,2.59-2.7,4.86-5.71,7.29-8.57,1.3-1.52,3.55-2.87,3.8-4.52,1.05-7.08,1.52-14.24,2.2-21.38-.83-.21-1.66-.43-2.49-.64-.53,1.75-1.99,3.95-1.4,5.15,1.35,2.74.24,4.25-1.26,6.19-1.16,1.5-1.5,3.73-2.81,5.02-2.26,2.22-4.99,3.96-7.52,5.9-.98-1.63-3.04-3.5-2.74-4.83.98-4.35-.84-6.96-3.91-9.46-7.54-6.13-13.24-14.09-15.92-23.06-2.13-7.11-2.41-15.33,2.37-22.49,1.06-1.58.47-4.17,1.1-6.14,1.66-5.16,3.52-10.25,5.45-15.31.27-.71,1.36-1.32,2.18-1.51.35-.08,1.1.96,1.45,1.6,1,1.83,2.66,3.73,2.64,5.59-.03,2.49-.63,6.2-2.3,7.22-7.13,4.36-7.62,11.62-.85,16.07-.23,3.67-.45,7.12-.68,10.56-.42.14-.85.29-1.27.43-1.83-3.94-3.66-7.88-5.72-12.31-7.33,13.15.08,29.29,16.64,37.72.51-.93,1.02-1.87,1.64-2.99.96.49,1.92.98,3.75,1.92-.85-1.48-1.06-2.44-1.63-2.76-6.59-3.64-7.8-11.27-12.24-16.5-.54-.63-.43-2.82.12-3.2,5.34-3.65,5.89-9.58,7.49-15.69,2.42,5.47,7.41,9.04,6.04,15.66-.4,1.93,1.48,4.76,3.03,6.56,3.47,4.02,7.4,7.63,13.09,8.69.69-6.12-9.68-29.22-14.54-32.83-1.08,1.57-2.15,3.13-3.22,4.7-.54-.17-1.07-.33-1.61-.5,1.08-3.77,2.14-7.54,3.24-11.3,1.16-3.98,2.34-7.96,2.98-12.17-2.08,4.39-4.16,8.77-6.82,14.37-1.29-4.92-1.87-8.6-3.23-11.96-1.42-3.51-4.02-6.54-1.67-10.74.36-.64-1.48-2.5-2.45-4.04,1.16-1.73,2.16-3.91,3.77-5.45,2.18-2.09,4.59-2.09,4.59,1.64,0,4.27-.72,8.55-1.15,12.82-.16,1.62-.38,3.23-.58,4.84.41.13.82.26,1.22.39.69-.77,1.86-1.47,2-2.33,1-6.13,1.5-12.36,2.72-18.44,1.62-8.14,3.63-16.21,5.79-24.22.33-1.23,2.39-1.99,4.9-3.93-.22,2.91-.1,4.46-.48,5.88-1.2,4.57-2.64,9.08-3.86,13.65-.24.89-.25,2.45.27,2.84,5.44,4,2.84,9.63,3.17,14.66.16,2.42.5,4.84.74,7.25.15,1.47.88,3.24.31,4.35-3.75,7.4-.79,14.24,1.52,21.1.35,1.03,1.96,1.63,2.98,2.44.28-1.3.64-2.59.83-3.9.34-2.33.55-4.67.86-7.01.19-1.41.93-2.94.59-4.19-1.32-4.94-3.55-9.7-4.29-14.7-.56-3.8,1.05-7.87.92-11.8-.18-5.84-1.05-11.65-1.7-18.29,3.01-4.8,5.1-10.8,3.49-18.03-1.24-5.56-2.46-11.35,1.15-16.85,1.2-1.83,1.35-4.34,1.99-6.55-.52-.31-1.03-.63-1.55-.94-2.85,4.12-5.71,8.23-8.09,11.68-1.63-1.36-3.5-2.92-5.63-4.7,5.39-1.1,5.86-5.92,7.63-9.76,1.18-2.55,2.23-5.16,3.47-7.68.77-1.57,3.27-2.7.44-4.9-.44-.34,1.51-3.75,1.66-6.05-5.16,7.34-10.21,14.71-10.48,24.34-.64.01-1.27.03-1.91.04-.41-2.97-1.15-5.94-1.14-8.91,0-3.42.05-7.09,1.25-10.2,1.03-2.68,3.71-4.73,6.46-8.01-7.52.82-9.14-2.02-5.44-8.77-2.49,1.28-3.37,1.73-4.09,2.09-7.19-10.64-7.99-21.72-2.41-33.33.89-1.86.35-4.38,1.12-6.34,1.26-3.19,3.07-6.17,4.6-9.25.58-1.16,1.18-2.33,1.54-3.57,2.43-8.25,4.37-16.67,7.27-24.75,4.91-13.71,10.83-27.06,15.5-40.85,2.6-7.68,3.72-15.88,5.18-23.91,2.44-13.42,4.11-27.01,7.15-40.29,1.48-6.47,5.39-12.37,8.06-18.58.62-1.43.68-3.1,1-4.66-1.43-.2-2.86-.41-5.26-.75,5.84-10.84,11.59-21.5,17.34-32.16,2.8-5.19,4.24-11.28,9.73-14.73.51-.32.81-1.06,1.06-1.66,2.77-6.55,3.76-7.77,10.64-12.62-.5,1.24-.99,1.94-1,2.64-.02,1,.31,2.01.48,3.02,1.03-.36,2.39-.43,3.01-1.15,1.41-1.62,2.51-3.52,3.63-5.37,3.61-5.93,7.49-11.74,10.71-17.88,9.5-18.08,25.57-28.91,42.2-39.33,6.88-4.31,12.71-10.56,19.94-14.02,10.19-4.88,21.24-7.97,31.91-11.85,2.1-.76,4.15-1.64,5.96-2.95-10.1,1.4-20.21,2.81-31.94,4.43,6-3.71,10.88-6.72,15.77-9.74-15.73,4.11-29.92,11.2-43.84,21.75.58-2.21.51-3.8,1.24-4.37,4.22-3.31,8.63-6.38,12.99-9.52,1.8-1.3,3.6-2.6,5.44-3.84,4.67-3.14,9.35-6.26,14.04-9.37,1.27-.84,2.57-1.64,3.85-2.46-.2-.42-.4-.84-.6-1.26-4.17,1.26-8.34,2.51-12.51,3.77-.35-.77-.7-1.55-1.05-2.32,2.96-1.8,6.1-3.37,8.85-5.45,8.07-6.12,18-4.75,27.04-6.69,9.99-2.14,20.29-2.78,30.47-4,1.61-.19,3.28.12,4.91.05,6.2-.25,12.23-.54,16.25-6.67,1.54-2.34,4.42-3.97,6.99-5.37.75-.4,2.78.9,3.82,1.85,1.37,1.26,2.34,2.96,3.77,4.86,1.47-1.79,2.45-2.97,3.74-4.54.75,1.41,1.53,2.34,1.74,3.39.67,3.4,2.77,4.09,5.87,3.8,1.77-.16,3.61.46,5.42.47,1.56,0,3.84.18,4.48-.69.74-1.01.41-3.21-.1-4.66-1.18-3.32-2.77-6.49-4.19-9.73.62-.44,1.25-.87,1.87-1.31,2,2.26,4.32,4.32,5.94,6.83,2.36,3.67,4.87,6.11,9.74,5.05,1.46-.32,3.28,1,6.39,2.07-5.27-6.04-9.75-11.18-14.23-16.33.45-.64.9-1.28,1.34-1.92,4.92,2.73,10.04,5.15,14.69,8.27,4.78,3.19,9.1,7.06,11.82,9.21-2.56-3.3-6.66-8.58-11.37-14.65,8.18.54,8.74,10.29,15.68,10.79.12-2.89.44-3.12,9.56-7.17,1.65,3.2,3.31,6.42,4.75,9.21,4.37,0,8.49-.35,12.52.09,5.24.57,5.76,2.37,2.54,6.85-.66.92-1.65,2.02-1.57,2.95.07.87,1.38,1.63,2.14,2.44,3.75-4.43,6.13-.04,9.64,2.11.68-1.39,1.34-2.76,2.1-4.31,3.8,2.68,6.74,4.76,10.89,7.68-1.94,3.08-4.07,6.47-6.76,10.75,2-.8,4.03-.97,4.49-1.91,2.52-5.1,6.83-7.62,11.79-8.81,4.78,2.76,9.46,5.96,14.59,8.1,1.36.57,4.36-1.76,6.08-3.34,1.46-1.34,2.17-3.5,3.77-6.25,2.32,5.89,5.69,7.81,11.48,3.57-.04.78-.09,1.56-.13,2.34-1.47,2.07-3.75,4.01-4.11,6.25-.23,1.43,2.38,3.31,4.27,4.7.27,4.15-6.61,6.41-3.87,11.9.38.77,1.67,1.09,2.74,1.74.6-3.6,1.1-6.62,1.59-9.64.56-.06,1.11-.12,1.67-.17,3.33,5.52,6.41,11.21,10.05,16.52,3.51,5.13,6.81,10.94,11.64,14.46,4.09,2.97,4.64,6.49,5.86,10.33.38,1.2,1.01,2.32,1.53,3.48.54-.48,1.08-.95,1.62-1.43.42-7.46.84-14.92,1.27-22.37.71-.02,1.42-.03,2.13-.05.16,2.42.75,4.89.42,7.24-1.17,8.26-2.57,16.47-.99,24.83.15.8-.18,1.89.25,2.42,3.11,3.86,6.22,7.74,9.58,11.38,8.5,9.22,17.18,18.27,25.67,27.5,2.01,2.19,3.72,4.72,5.21,7.31.83,1.44.91,3.31,1.33,4.99-1.78.31-3.56.63-6.08,1.07.91,3.6,1.97,7.54,5.99,9.99l-.14-.12c5.24,6.9,4.37,15.45,6.26,23.25.62,2.57-1.14,6.42,3.78,6.7.37.02.89,2.03.89,3.12,0,2.82.02,5.69-.45,8.46-1.45,8.53,2.88,15.92,4.59,23.8,1.14,5.23,5.11,9.34,10.09,10.21,13.26,2.31,18.57,12.38,23.78,22.66,1.29,2.56,1.2,5.79,1.91,8.68.21.85.83,2.01,1.54,2.28,9.16,3.41,13.75,11.74,19.87,18.38,5.07,5.51,9.57,11.55,14.79,16.9,5.03,5.15,7.97,12.22,14.97,15.57,13.34,6.37,18.14,19.05,22.91,31.7.82,2.17,1.66,4.43,3,6.29,6.31,8.77,13.21,17.14,19.07,26.19,4.13,6.37,6.83,13.65,10.37,20.41,3.77,7.2,7.71,14.31,11.74,21.37,2.03,3.55,5.04,6.7,3.12,11.35-.26.64.01,1.73.41,2.39,5.01,8.31,4.08,17.65,3.1,26.37-.79,7.03-4.65,13.73-7.2,20.55-.58,1.56-1.03,3.31-2.06,4.53-4.88,5.77-4.88,12.41-2.8,18.9,3.34,10.41,6.16,21.34,11.65,30.6,3.56,6,11.48,9.42,18.18,14.57,0,3.51-.17,8.27.11,13.01.08,1.3,1.24,2.84,2.34,3.73,5.81,4.64,11.41,9.58,18.98,11.48,7.08,1.78,13.9,4.92,21.06,6.02,14.4,2.21,26.25,10.56,39.59,15.25,13.47,4.73,26.91,9.79,39.76,15.97,23.33,11.23,47.47,21.04,68.57,36.52,1.85,1.36,4.14,2.12,6.23,3.16v139.13h-483.45c5.59-8.28,15.24-11.69,22.13-18.4.93-.91,2.71-1.38,3.05-2.4,1.76-5.23,6.56-6.72,10.56-9.3,2.01-1.3,3.8-3.07,5.33-4.93,6.63-8.01,14.56-14.15,24.15-18.34,4.82-2.1,9.62-4.69,11.77-10.31-2.29,0-4.27.48-6.15,1.24-2.62,1.06-5.08,2.88-7.77,3.29-1.95.29-4.27-1.01-6.17-2.07-.33-.18.7-2.66.96-4.11.18-1,.4-2.84.14-2.93-1.27-.42-2.85-.84-4.02-.41-2.61.96-5.03,2.42-7.57,3.7-.54,6.02-1.52,6.77-7.83,6.21-4.11-.37-8.22-.62-11.21-.84-2.88,3.03-5.2,7.52-7.53,7.52-6.36,0-10.19,4.3-15.05,6.7-17.59,8.66-34.95,17.77-52.62,26.25-11.11,5.33-21.91,11-31.25,19.14h-8.01c2.57-1.82,5.06-3.78,7.74-5.43,5.64-3.48,11.75-6.32,17-10.29,11.01-8.34,21.98-16.48,34.66-22.35,7.21-3.34,13.69-8.39,20.13-13.16,5.31-3.94,10.09-8.6,15.47-13.25-1.83-2.95-5.22-2.46-8.47-2.4-3.8.07-7.67.57-11.39.04-3.25-.46-4.71.3-5.22,3.45-.71,4.48-3.72,6.23-7.59,4.51-6.53-2.9-12.47-4.14-17.78,2.06-.19.22-.6.27-.92.37-6.77,2.24-14.06,3.54-20.15,6.96-6.25,3.51-14.69,1.86-19.36,8.6-.21.3-.99.42-1.41.31-7.81-2.17-13.57,3.05-19.75,5.92-9.97,4.63-18.71,11.42-29.22,15.47-10.18,3.92-20.06,8.58-30.54,11.9-4.73,1.5-8.88,4.82-13.29,7.31h-202.19Zm438.94-616.82c-1.63-6.01-2.67-11.56-4.62-16.76-4.15-11.07-3.92-23.63-11.46-33.54-.59-.77-.78-1.84-1.22-2.73-1.67-3.36-3.15-6.85-5.12-10.03-2.71-4.37-6.68-8.16-8.57-12.82-4.56-11.28-11.61-20.41-20.95-27.96-4.01-3.24-7.9-6.69-12.19-9.51-5.8-3.83-11.81-7.4-17.97-10.62-8.96-4.69-18.91-4.54-28.69-5.55-12.16-1.26-24.28-1.73-36.46-1.33-5.14.17-9.93,2.27-14.73,3.07-9.55,1.59-13.72,8.04-17.85,15-3.32,5.6-5.79,11.78-13.55,12.59-1.17.12-2.26,1.18-3.36,1.86-7.19,4.43-14.04,9.6-21.64,13.13-11.28,5.23-23.11,9.26-34.69,13.85-5.17,2.05-10.72,3.55-15.34,6.5-7.28,4.64-14.19,9.96-20.73,15.6-4.43,3.82-11.35,7.13-7.16,15.27.06.12-.02.33-.04.49-.92,6.71-1.59,13.48-2.86,20.13-.81,4.26-1.54,8.06,1.97,11.6.81.82.22,3.09.19,4.69-.11,6.1-2.16,13,0,18.13,4.65,11.08,5.65,22.09,4.6,33.71-.57,6.29-.87,12.63-.85,18.94.03,12.52.23,25.05.69,37.56.1,2.77.68,6.73,2.52,8.02,6.32,4.44,6.73,10.48,6.89,17.19.04,1.82,2.16,4.51,3.95,5.21,5.59,2.18,17.83-4.12,19.66-9.82,1.71-5.33,3.11-10.77,4.82-16.79,3.79,1.82,3.47-1.59,4.58-4.01.88-1.92,2.65-3.57,4.35-4.94,3.75-3.01,8.28-5.25,11.44-8.75,4.75-5.27,9.74-9.67,16.56-12.05,1.78-.62,2.89-3.19,4.31-4.86-1.64-1.25-3.16-2.7-4.95-3.66-.9-.48-2.38-.37-3.42-.01-4.71,1.62-9.8,2.74-13.95,5.32-7.84,4.88-15.68,8.59-25.82,6.25.32-1.74.04-4.15,1.11-5.34,8.31-9.3,14.21-21.1,27-25.86,5.26-1.96,10.12-4.99,15.29-7.24,4.69-2.04,9.49-3.87,14.35-5.42,8.07-2.57,16.24-4.78,24.34-7.24,10.25-3.1,20.45-4.27,30.74-.04.9.37,2.6-.27,3.46-1,1.48-1.23,2.6-2.91,3.86-4.38q7.89,5.88,9.52,12.71c6.81-.32,10.14,4.02,11.19,14.82-2.48.69-5.01,1.42-7.55,2.11-7.29,1.99-8.53,3.67-8.26,11.29.22,6.14.6,12.28.65,18.43.01,1.45-.61,3.71-1.64,4.23-4.14,2.11-6.88,6.47-12.56,6.33-4.28-.1-5.2,2.85-2.47,6.37,2.62,3.37,1.86,6.13-.73,8.87-1.03,1.09-2.26,1.99-3.24,3.11-2.02,2.31-2.45,4.52,1.11,5.69,4.26,1.4,3.69,4.55,1.46,6.47-6.51,5.62-12.86,12.02-20.45,15.68-13.98,6.75-29.49,3.2-44.37,3.76-1.04.04-2.63-1.92-3.07-3.25-.24-.71,1.32-2.86,2.26-2.99,9.87-1.41,19.7-2.69,28.93-6.98,6.69-3.11,13.73-5.48,20.52-8.39.82-.35,1.08-2.03,1.6-3.09-1.04-.16-2.24-.74-3.08-.4-3.4,1.37-6.7,2.98-10,4.57-5.09,2.45-9.88,2.03-14.74-.88-5.96-3.57-8.89-8.71-9.4-15.54-.39-5.26-1.79-5.88-6.2-2.83-6.68,4.62-10.11,11.7-13.84,18.57-1.28,2.35-3.29,6.17-4.9,6.14-6.13-.11-8.01,4.67-11.18,8.01-2.06,2.17-3.84,4.61-6,6.66-3.6,3.42-7.19,3.28-11.3.66-2.09-1.33-4.79-2.32-7.24-2.35-5.98-.08-11.98.79-17.95.67-3.64-.08-5.42,1.33-6.9,4.4-2.79,5.79-5.88,11.44-8.97,17.09-.52.95-1.62,1.63-2.54,2.33-7.72,5.82-11.67,13.68-12.41,23.19-1.34,17.31,10.6,28.82,18.88,41.78,2.64,4.14,4.64,7.76,4.52,12.73-.07,2.87.89,5.82,1.64,8.66,1.35,5.1,3,10.13,4.36,15.23,3.3,12.4,6.5,24.83,9.77,37.25.16.63.59,1.19.95,1.76,3.27,5.2,7.37,10.06,9.66,15.66,5.35,13.11,15.24,22.93,23.71,33.65,9.37,11.87,20.73,21.89,35.07,27.94,5.48,2.31,10.7,5.24,15.97,8.02,4.23,2.24,8.1,5.49,12.57,6.9,19.95,6.28,40.04,12.1,60.11,18,3.02.89,6.33.94,9.2,2.12,12.88,5.31,26.28,5.36,39.74,3.97,5.73-.59,11.32-2.48,16.99-3.71,5.29-1.15,10.6-2.21,15.91-3.3,7.62-1.57,15.25-3.08,22.85-4.74,2.2-.48,4.46-1.11,6.41-2.19,4.16-2.31,7.85-5.83,12.26-7.22,5.14-1.63,10.53-1.73,15.93-3.77,5.2-1.96,9.02-5.47,13.75-7.71,2.23-1.05,4.05-3.41,5.52-5.54,8.02-11.62,9.5-25.06,10.24-38.62.59-10.65.9-21.32,1.3-31.99.7-18.99,2.19-38,1.85-56.97-.49-27.15-2.12-54.3-3.67-81.42-.65-11.3-.95-22.91-3.84-33.72-6.6-24.61-14.61-48.84-22.26-73.16-1.91-6.07-4.62-11.89-6.99-17.91-4.42,4.6-7.58,10.1-12.22,12.05-4.38,1.85-11.14,4.83-15.34-3.21-2.63,8.23-3.84,16.48-13.71,18.29,7.09,1.59,10.92.3,18.42-5.09,1.04-.75,2.78-.52,4.19-.74-.61,1.17-.99,2.55-1.87,3.46-3.08,3.19-6.34,6.22-9.44,9.23-.7-1.07-1.44-2.15-4.16.17-5.15,4.39-11.03,8.03-18.4,7.24-2.98-.32-6.01-.48-8.9-1.22-1.74-.44-3.22-1.86-4.82-2.83,1.48-1.08,2.84-2.84,4.46-3.13,5.02-.9,8.97-3.22,12.39-7.56-1.17-1.39-2.5-2.64-3.41-4.14-1.96-3.22-3.72-6.57-5.54-9.88-.83-1.51-1.58-3.05-2.36-4.58-1.76,1.08-4.28,1.75-5.14,3.33-3.19,5.81-5.83,11.92-8.67,17.92l1.01,1.46c-2.3-.51-5.27-.35-6.68-1.75-.95-.96.11-4.14.58-6.26.7-3.13,1.67-6.2,2.53-9.29-3.39.48-5.16,1.92-7.14,2.32-4.67.94-7.48-3.46-5.88-9.38,2.96-10.96,9.99-19.39,17.9-27.06,1.73-1.68,4.82-2.82,7.26-2.78,14.29.25,28.73-4.19,42.85,1.13,1.32.5,3.25,1.59,3.38,2.59.32,2.54.8,3.91,3.81,3.93,2.17.01,4.34,1.04,6.95,1.73-.38,2.25-.81,4.79-1.24,7.32,4.37.36,6.62-.98,6.37-4.53-.46-6.63-.93-13.33-2.29-19.81-1.74-8.27-11.04-16.66-22-14.36-1.75.37-3.62.21-5.43.25-9.24.23-18.14.16-27.16,4.47-6.76,3.23-13.77,8.55-22.56,6.37-2.17-.54-5.16,1.49-6.12-2.13-.66-2.51-2.15-5.97-1.09-7.55,3.71-5.55,7.48-11.81,12.84-15.32,9.21-6.04,20.52-6.75,31.32-6.87,5.8-.07,12.65.96,17.12,4.16,3.54,2.54,6.31,3.09,11.13,3.09Zm-332.6,15.98c-.85-3.5-3.19-7.51-2.22-10.4,1.97-5.87.65-11.54-.68-16.53-3.95-14.74-5.26-29.2-.76-43.94,3-9.82,10.5-16.27,18.33-21.51,6.33-4.24,15.47-3.33,21.15-9.96,1.22-1.42,3.95-1.54,5.98-2.26-.06-.58-.12-1.16-.19-1.74-2.81-.35-6.04-1.77-8.35-.87-7.54,2.94-15.26,5.95-21.96,10.37-11.42,7.52-20.64,17.27-23.64,31.36-.96,4.51-1.57,9.1-2.3,13.67-.46,2.9-1.07,5.79-1.25,8.71-.51,8.15,4.69,16.53-1.03,24.5-.32.44-.27,1.4-.02,1.95,1.68,3.77,3.39,7.53,5.25,11.21.28.56,1.68,1.19,2.09.95,5.61-3.22,7.07,1.41,9.6,4.5Zm205.79,462.58c-.93-3.37-1.29-6.62-2.68-9.34-4.49-8.84-21.42-14.21-30.87-10.83-3.81,1.37-5.79,4.47-4.93,8.23.9,3.94,2.03,8.52,4.69,11.22,6.98,7.1,14.75,13.44,22.4,19.84,2.42,2.03,5.63,2.46,6.83-1.39,1.83-5.85,3.08-11.87,4.56-17.72Zm-267.41-467.68c-.51,2.28-1.26,4.55-1.49,6.86-.39,3.93,0,7.99-.74,11.83-1.45,7.48-3.27,14.9-5.28,22.24-1.73,6.3-4.19,12.4-5.87,18.7-2.05,7.7-3.89,15.5-2.49,24.12.56-.79.82-1.03.92-1.32,1.74-5.01-.33-12.13,7.75-13.71.78-.15,1.54-2.21,1.7-3.46.36-2.92.18-5.92.53-8.85,2.2-18.66,9.04-36.8,4.98-56.43Zm365.89,514.03c-3.58.56-5.9,1.61-7.75,1.07-3.97-1.17-6.33.7-8.68,3.22-2.47,2.64-4.73,5.55-7.5,7.83-2.33,1.93-4.34,4.12-2.13,6.52,1.71,1.87,5.3,3.77,7.38,3.2,5.77-1.56,12.1-2.99,14.9-9.59.48-1.14,1.71-2.01,2.69-2.89,4.55-4.05,4.58-5.82,1.08-9.37Zm-435-80.22c1.7-9.15,2.6-17.07-.5-24.77-1.53-3.79-5.08-5.33-8.43-2.2-2.85,2.67-4.84,6.25-6.85,8.95,5.5,6.28,10.11,11.54,15.78,18.02Zm40.68-320.59c3.9-20.15,9.47-40.07,6.97-60.9-4.97,20-9.57,40.05-6.97,60.9Zm14.49,413.47c-.05.66-.03,1.33-.15,1.98-.65,3.29.68,4.83,3.98,5.54,3.43.73,4.11-1.22,4.51-3.68,1.11-6.81,2.23-13.61,3.09-20.45.12-.98-1.05-2.28-1.92-3.13-.23-.22-1.89.48-2.36,1.14-4,5.56-7.21,11.47-7.15,18.6Zm52.04-545.39c-1.58,13.25-2.68,25.31,2.23,37.13.4-5.05.78-9.93,1.16-14.8.43.01.85.02,1.28.03.83,1.95,1.66,3.9,2.97,6.97,1.75-11.43-2.59-19.85-7.64-29.34Zm-24.78-8.59c4.37-9.86,8.47-19.08,12.71-28.65-12.02,3.07-11.9,14.45-17.62,20.3,1.71,2.91,2.93,4.99,4.9,8.35Zm129.34-141.7c.05.85.1,1.7.16,2.55,1.44-.09,2.88-.14,4.32-.26,7.9-.69,15.79-1.55,23.7-2.02,2.94-.17,5.95.93,8.89.76,1.28-.07,2.46-1.88,3.68-2.89-1.12-1.21-2.1-3.2-3.4-3.45-2.36-.45-4.93.02-7.39.33-5.73.73-11.46,1.5-17.15,2.43-4.29.7-8.54,1.69-12.8,2.54Zm17.63,277.11c9.43-3.93,14.51-11.26,21.49-17.87-7.62-1.09-20.18,9.54-21.49,17.87Zm249.04-151.87c2.24,7.52,4.23,14.18,6.22,20.85,2.59-5.95-1.19-18.88-6.22-20.85Zm-345.94,163.7c-4.56,5.69-12.49,10.12-7.76,20.61,2.88-7.65,5.32-14.13,7.76-20.61Zm-119.86,314.6c-.44.14-.88.27-1.32.41.63,2.07.91,4.36,2.04,6.09.46.7,3.44.8,4.13.08,1.26-1.32,2.59-3.65,2.25-5.2-.66-3-2.45-5.75-3.78-8.6-.57.2-1.14.4-1.71.6.59,2.83,1.17,5.66,2,9.65-1.82-1.53-2.72-2.28-3.62-3.04Zm88.24-425.78c3.58-8.52,2.46-17.25,0-26.02v26.02Zm18.01-91.41c-10.6,4.4-15.88,12.13-13.34,16.31,4.3-5.26,8.82-10.78,13.34-16.31Zm-116.35,489.99c3.31,1.74,5.51,2.89,8.04,4.22-.67-2.47-.8-4.98-2-6.78-1-1.5-3.26-2.17-4.96-3.2-.45,1.59-.98,3.17-1.3,4.79-.11.58.3,1.27.22.97Zm309.23,116.48c-1.66,1.98-3.38,3.49-3.16,3.86.97,1.68,2.51,3.04,3.84,4.51.9-1,2.69-2.18,2.53-2.97-.33-1.61-1.7-3.01-3.2-5.4Zm-226.83-448.45c3.16-6.09,7.11-11.91,6.27-18.9l-1.25-.31c-1.67,6.4-3.35,12.81-5.02,19.21Zm-5.75,71.26c4.92-4.38,5.5-10.29,2.16-12.5-.73,4.2-1.45,8.35-2.16,12.5Zm56.23-163.44c.7-.27,1.41-.54,2.11-.81-1.45-3.95-2.91-7.9-4.36-11.85-.86.33-1.72.67-2.57,1,1.61,3.88,3.21,7.77,4.82,11.65Zm-79.9,551.03l-1.98,1.28c.74,1.5,1.14,3.46,2.34,4.34.78.57,2.71-.43,4.13-.73-1.49-1.63-2.99-3.26-4.48-4.89Zm28.75-420.11c-.68-.08-1.36-.16-2.04-.24-.32,3.8-.64,7.59-.96,11.39.45.06.91.11,1.36.17l1.63-11.31Zm-84.62,184.38c.55-.02,1.09-.03,1.64-.05-.16-3.13-.31-6.26-.47-9.38-.64.04-1.29.07-1.93.11.26,3.11.51,6.22.77,9.32Zm19.8-110.58c-.53.05-1.05.1-1.58.16.34,3.28.67,6.57,1.01,9.85.56-.06,1.12-.11,1.68-.17-.37-3.28-.74-6.56-1.11-9.84Zm120.1-212.83c-.54.1-1.08.21-1.62.31l1.83,10.13c.57-.11,1.14-.22,1.71-.33-.64-3.37-1.28-6.74-1.91-10.11Z"/>
  <path fill="green" d="m190.22,578.58c1.49,1.65,2.45,2.7,3.49,3.84,1.87-6.89.64-11.38-3.1-11.36-.62-6.52.24-12.39,5.12-17.51,1.49-1.57,1.1-4.94,1.58-7.48.29-1.54.51-3.11,1.03-4.58.09-.26,2.06-.3,2.16-.04.63,1.59,1.33,3.29,1.34,4.96,0,2.99-.46,5.99-.02,9.11,6.36-9.98,3.71-23.5,13.67-32.7,3.06,8.23-6.41,15.8.5,23.95,1.15-4.25,2.17-8.03,3.33-12.3,3.45,5.57-2.9,27.75-11.5,40.6.46-4.89.8-8.55,1.14-12.21-.42-.07-.83-.14-1.25-.2-1.64,3.22-4.28,5.31-4.48,10.04-.22,5.04-3.72,10.04-6.19,14.85-1.67,3.26-4.05,6.15-5.68,8.56-.31-4.71-.69-10.57-1.14-17.52Z"/>
  <path fill="green" d="m180.52,991.61c3.09-6.2,11.38-6.89,11.49-14.71,1.46-.5,2.83-.97,3.65-1.26-.26-5.29-.49-10.19-.73-15.09.54-.08,1.07-.17,1.61-.25,5.8,9.11,11.59,18.23,17.39,27.34-.38.29-.76.58-1.14.88-2.4-2.76-5.01-5.38-7.16-8.33-2.5-3.42-4.32-4.27-7.68-.56-3.53,3.9-7.96,7.03-12.2,10.21-1.4,1.05-3.46,1.21-5.22,1.78Z"/>
  <path fill="green" d="m221.47,1057.59c.52,1.24,1.25,2.12,1.05,2.62-2.68,6.51-5.49,12.96-8.48,19.92-5.98-5.95-6.12-6.8-2.1-11.68,2.89-3.5,5.98-6.83,9.54-10.87Z"/>
  <path fill="green" d="m183.01,942.17c-.51-2.75-1.01-5.51-1.52-8.26-.34-.04-.68-.08-1.03-.12-1.39,2.67-2.78,5.34-4.17,8-.35-.19-.71-.37-1.06-.56,2.01-7.01,3.95-14.04,6.13-20.99.22-.7,1.94-.93,2.97-1.38.38,1.82,1.67,4.68.98,5.3-5.03,4.45-2.19,8.35-.03,12.72.68,1.38-.37,3.63-.63,5.48-.55-.06-1.1-.12-1.64-.18Z"/>
  <path fill="green" d="m275.03,397.68c2.24,6.36,2,6.65-14.2,17.58,1.63-8.75,6.94-13.85,14.2-17.58Z"/>
  <path fill="green" d="m495.77,262.27c10.54-.29,14.42,3.78,14.69,14.73-5.4-5.42-10.05-10.08-14.69-14.73Z"/>
  <path fill="green" d="m161.63,1051.13c-14.1-2.78-15.96-19.92-9.71-28.1-1.92,11.9-1.58,22.03,9.71,28.1Z"/>
  <path fill="green" d="m177.02,880.11c-3.43-6.91-2.91-11.21,1.25-15.08.73-.68,1.96-.82,2.97-1.21.28,1.16,1.07,2.49.75,3.44-1.36,4.04-3.05,7.98-4.97,12.84Z"/>
  <path fill="green" d="m222.52,497.2c-4.56,6.94-7.32,15.22-15.16,19.72,3.29-7.87,7.98-14.69,15.18-19.64v-.08Z"/>
  <path fill="green" d="m195.37,1048.59c-2.98,4.45-15.01,9.36-19.3,8.08-.86-.26-1.61-.92-2.42-1.4,7.25-2.23,14.25-4.38,21.72-6.68Z"/>
  <path fill="green" d="m208.83,945.58c.36,5.38-1.16,10.26-3.37,14.95-.77-.19-1.54-.38-2.3-.56,1.11-5,2.23-9.99,3.34-14.99.78.2,1.55.4,2.33.6Z"/>
  <path fill="green" d="m178.35,581.34c-5.22-3.49-6.84-8.48-9.28-13.77,5.78,2.23,9.45,7.62,9.28,13.77Z"/>
  <path fill="green" d="m166.85,997.61c2.43-3.53,4.86-7.05,7.68-11.15,3.65,7.92-.82,9.48-6.44,12.07l-1.24-.92Z"/>
  <path fill="green" d="m191.42,734.63c.78-4.69,1.52-9.13,2.44-14.69,3.98,5.94,3.13,9.54-2.44,14.69Z"/>
  <path fill="green" d="m222.15,463.98c2.35,4.5-1.02,7.59-1.47,11.17-4.62-1.79-4.46-3.03,1.47-11.17Z"/>
  <path fill="green" d="m153.83,844.59c-3.96-5.36-7.92-10.73-11.89-16.09.46-.33.93-.67,1.39-1,3.75,5.58,7.5,11.16,11.26,16.73-.26.12-.51.24-.76.36Z"/>
  <path fill="green" d="m690.98,441.63c-.4-.71-1.15-1.41-1.14-2.12,0-1.41.42-2.81.67-4.22,1.22.56,3.22.89,3.45,1.72.31,1.09-.67,2.63-1.34,3.85-.23.42-1.18.44-1.79.64,0,0,.15.12.15.12Z"/>
  <path fill="green" d="m305.05,348.9c2.51-2.07,5.02-4.15,7.61-6.28.1,4.45-2.45,7.41-6.55,7.73-.35-.48-.7-.96-1.06-1.45Z"/>
  <path fill="green" d="m291.32,379.32c1.46-2.32,2.92-4.64,4.38-6.97.58.34,1.17.68,1.75,1.01-1.34,2.37-2.69,4.75-4.03,7.12-.7-.39-1.4-.78-2.1-1.17Z"/>
  <path fill="green" d="m235.03,1050.18c1.02-2.46,2.03-4.93,3.05-7.39.76.32,1.51.63,2.27.95-1,2.52-2.01,5.03-3.01,7.55-.77-.37-1.54-.74-2.3-1.11Z"/>
  <path fill="green" d="m349.94,316.8c-1.87,1.11-3.74,2.23-5.61,3.34-.37-.54-.74-1.07-1.11-1.61,1.73-1.28,3.47-2.57,5.2-3.85.51.7,1.01,1.41,1.52,2.11Z"/>
  <path fill="green" d="m222.54,497.27c1.42-3.82,2.84-7.63,4.26-11.45,2.52,5.57-2.24,7.81-4.29,11.34.01.03.02.11.02.11Z"/>
  <path fill="green" d="m641.16,765.15c-4.67,1.23-8.49,2.33-12.35,3.23-2.89.67-5.85,1.01-8.75,1.64-2.16.47-4.27,1.18-6.4,1.78-.93.26-2.01.99-2.77.74-5.11-1.69-9.41.41-13.86,2.44-7.46,3.41-14.92,6.91-22.61,9.72-5.11,1.87-10.59,2.97-16,3.75-4.51.65-6.76-2.95-4.1-6.61,1.73-2.39,4.75-3.85,7.23-5.68,3.92-2.9,7.85-5.79,11.83-8.62,2.96-2.11,6.26-3.81,8.96-6.2,8.51-7.51,17.34-14.55,27.91-18.91,5.59-2.3,11.18-3.87,17.7-3.6,7.43.31,15.75-.68,20.99-7.22,6.13-7.66,18.23-6.24,24.07.64,2.04,2.4,5.52,3.53,8.18,5.46,1.5,1.08,3.86,2.73,3.73,3.9-.18,1.7-1.99,4.14-3.57,4.59-4.22,1.2-8.72,1.4-13.06,2.24-1.44.28-2.82,1.18-4.08,2.03-4.93,3.3-9.75,6.79-14.73,10.02-2.96,1.91-6.15,3.46-8.33,4.66Z"/>
  <path fill="green" d="m565.65,692.05c.96,0,1.93-.13,2.87.02,5.95.99,10-1.71,13.82-6.06,3.57-4.06,7.66-7.86,12.13-10.88,6-4.05,12.7-3.15,19.15-.55,1.03.41,2.59,1.25,2.66,2.02.52,5.24,4.09,6.15,8.31,6.03.31,7.57-3.65,10.99-10.57,9.66-1.92-.37-4.35-.87-5.87-.05-3.9,2.12-7.41,3.37-11.4.29-.4-.31-2.04,1.01-3.11,1.57-2.04,1.06-4.21,3.22-6.1,3-7.38-.87-14.67-2.49-21.99-3.83.03-.4.07-.81.1-1.21Z"/>
  <path fill="green" d="m639.04,805.29c-2.51-1.62-6.09-2.68-7.27-4.98-1.76-3.44-3.32-3.18-6.24-2.21-1.45.48-3.34-.36-5.03-.61,1.19-1.55,2.06-3.76,3.63-4.53,8.4-4.13,16.97-7.93,25.52-11.77,1.16-.52,2.5-.81,3.77-.85,2.95-.11,5.92-.14,8.86.08,1.18.09,2.86.65,3.3,1.51.44.87.04,2.78-.71,3.53-2.84,2.87-7.66,4.26-6.77,9.72-5.92,3.52-10.82,9.09-19.06,10.1Z"/>
  <path fill="green" d="m635.71,675.8c-2.13,1.41-4.11,3.28-6.45,4.03-1.24.4-3.1-1.15-4.68-1.82.14-.43.28-.86.42-1.3,3.3-.81,6.6-1.61,9.9-2.42.27.5.53,1,.8,1.51Z"/>
</svg>